<svg xmlns="http://www.w3.org/2000/svg" width="0" height="0" viewBox="0 0 0 0"><title>Neo4j Graph Visualization</title><desc>Created using Neo4j (http://www.neo4j.com/)</desc><g class="layer relationships"><g class="relationship" transform="translate(870.4819629213354 -161.07796489570921) rotate(488.6195984158753)"><path class="outline" fill="#A5ABB6" stroke="none" d="M 25 0.5 L 111.61826848960325 0.5 L 111.61826848960325 -0.5 L 25 -0.5 Z M 142.96592473960325 0.5 L 229.5841932292065 0.5 L 229.5841932292065 3.5 L 236.5841932292065 0 L 229.5841932292065 -3.5 L 229.5841932292065 -0.5 L 142.96592473960325 -0.5 Z"/><text text-anchor="middle" pointer-events="none" font-size="8px" fill="#000000" x="127.29209661460325" y="3" transform="rotate(180 127.29209661460325 0)" font-family="sans-serif">CALLS</text></g><g class="relationship" transform="translate(870.4819629213354 -161.07796489570921) rotate(506.9797431220038)"><path class="outline" fill="#A5ABB6" stroke="none" d="M 25 0.5 L 98.24782997511736 0.5 L 98.24782997511736 -0.5 L 25 -0.5 Z M 129.59548622511736 0.5 L 202.8433162002347 0.5 L 202.8433162002347 3.5 L 209.8433162002347 0 L 202.8433162002347 -3.5 L 202.8433162002347 -0.5 L 129.59548622511736 -0.5 Z"/><text text-anchor="middle" pointer-events="none" font-size="8px" fill="#000000" x="113.92165810011736" y="3" transform="rotate(180 113.92165810011736 0)" font-family="sans-serif">CALLS</text></g><g class="relationship" transform="translate(870.4819629213354 -161.07796489570921) rotate(508.6239891450429)"><path class="outline" fill="#A5ABB6" stroke="none" d="M 25 0.5 L 68.41008865980439 0.5 L 68.41008865980439 -0.5 L 25 -0.5 Z M 99.75774490980439 0.5 L 143.16783356960877 0.5 L 143.16783356960877 3.5 L 150.16783356960877 0 L 143.16783356960877 -3.5 L 143.16783356960877 -0.5 L 99.75774490980439 -0.5 Z"/><text text-anchor="middle" pointer-events="none" font-size="8px" fill="#000000" x="84.08391678480439" y="3" transform="rotate(180 84.08391678480439 0)" font-family="sans-serif">CALLS</text></g><g class="relationship" transform="translate(870.4819629213354 -161.07796489570921) rotate(513.2514636113822)"><path class="outline" fill="#A5ABB6" stroke="none" d="M 25 0.5 L 126.40102408172524 0.5 L 126.40102408172524 -0.5 L 25 -0.5 Z M 157.74868033172524 0.5 L 259.1497044134505 0.5 L 259.1497044134505 3.5 L 266.1497044134505 0 L 259.1497044134505 -3.5 L 259.1497044134505 -0.5 L 157.74868033172524 -0.5 Z"/><text text-anchor="middle" pointer-events="none" font-size="8px" fill="#000000" x="142.07485220672524" y="3" transform="rotate(180 142.07485220672524 0)" font-family="sans-serif">CALLS</text></g><g class="relationship" transform="translate(870.4819629213354 -161.07796489570921) rotate(487.3816684604087)"><path class="outline" fill="#A5ABB6" stroke="none" d="M 25 0.5 L 81.75619041033913 0.5 L 81.75619041033913 -0.5 L 25 -0.5 Z M 113.10384666033913 0.5 L 169.86003707067826 0.5 L 169.86003707067826 3.5 L 176.86003707067826 0 L 169.86003707067826 -3.5 L 169.86003707067826 -0.5 L 113.10384666033913 -0.5 Z"/><text text-anchor="middle" pointer-events="none" font-size="8px" fill="#000000" x="97.43001853533913" y="3" transform="rotate(180 97.43001853533913 0)" font-family="sans-serif">CALLS</text></g><g class="relationship" transform="translate(870.4819629213354 -161.07796489570921) rotate(525.8399232927715)"><path class="outline" fill="#A5ABB6" stroke="none" d="M 25 0.5 L 87.38202273302474 0.5 L 87.38202273302474 -0.5 L 25 -0.5 Z M 118.72967898302474 0.5 L 181.11170171604948 0.5 L 181.11170171604948 3.5 L 188.11170171604948 0 L 181.11170171604948 -3.5 L 181.11170171604948 -0.5 L 118.72967898302474 -0.5 Z"/><text text-anchor="middle" pointer-events="none" font-size="8px" fill="#000000" x="103.05585085802474" y="3" transform="rotate(180 103.05585085802474 0)" font-family="sans-serif">CALLS</text></g><g class="relationship" transform="translate(870.4819629213354 -161.07796489570921) rotate(500.57034990739635)"><path class="outline" fill="#A5ABB6" stroke="none" d="M 25 0.5 L 130.2271883770708 0.5 L 130.2271883770708 -0.5 L 25 -0.5 Z M 161.5748446270708 0.5 L 266.8020330041416 0.5 L 266.8020330041416 3.5 L 273.8020330041416 0 L 266.8020330041416 -3.5 L 266.8020330041416 -0.5 L 161.5748446270708 -0.5 Z"/><text text-anchor="middle" pointer-events="none" font-size="8px" fill="#000000" x="145.9010165020708" y="3" transform="rotate(180 145.9010165020708 0)" font-family="sans-serif">CALLS</text></g><g class="relationship" transform="translate(707.2150036397647 43.29960274400217) rotate(213.0928166273348)"><path class="outline" fill="#A5ABB6" stroke="none" d="M 25 0.5 L 91.12527673297136 0.5 L 91.12527673297136 -0.5 L 25 -0.5 Z M 144.55105798297137 0.5 L 210.67633471594272 0.5 L 210.67633471594272 3.5 L 217.67633471594272 0 L 210.67633471594272 -3.5 L 210.67633471594272 -0.5 L 144.55105798297137 -0.5 Z"/><text text-anchor="middle" pointer-events="none" font-size="8px" fill="#000000" x="117.83816735797136" y="3" transform="rotate(180 117.83816735797136 0)" font-family="sans-serif">SIMILAR_TO</text></g><g class="relationship" transform="translate(707.2150036397647 43.29960274400217) rotate(476.09507740769817)"><path class="outline" fill="#A5ABB6" stroke="none" d="M 25 0.5 L 119.14695405572624 0.5 L 119.14695405572624 -0.5 L 25 -0.5 Z M 172.57273530572624 0.5 L 266.7196893614525 0.5 L 266.7196893614525 3.5 L 273.7196893614525 0 L 266.7196893614525 -3.5 L 266.7196893614525 -0.5 L 172.57273530572624 -0.5 Z"/><text text-anchor="middle" pointer-events="none" font-size="8px" fill="#000000" x="145.85984468072624" y="3" transform="rotate(180 145.85984468072624 0)" font-family="sans-serif">SIMILAR_TO</text></g><g class="relationship" transform="translate(450.67549538475544 440.8606968554181) rotate(314.06617828225285)"><path class="outline" fill="#A5ABB6" stroke="none" d="M 25 0.5 L 70.794601559431 0.5 L 70.794601559431 -0.5 L 25 -0.5 Z M 102.142257809431 0.5 L 147.936859368862 0.5 L 147.936859368862 3.5 L 154.936859368862 0 L 147.936859368862 -3.5 L 147.936859368862 -0.5 L 102.142257809431 -0.5 Z"/><text text-anchor="middle" pointer-events="none" font-size="8px" fill="#000000" x="86.468429684431" y="3" font-family="sans-serif">CALLS</text></g><g class="relationship" transform="translate(450.67549538475544 440.8606968554181) rotate(272.11913822487594)"><path class="outline" fill="#A5ABB6" stroke="none" d="M 25 0.5 L 85.97074812178892 0.5 L 85.97074812178892 -0.5 L 25 -0.5 Z M 117.31840437178892 0.5 L 178.28915249357783 0.5 L 178.28915249357783 3.5 L 185.28915249357783 0 L 178.28915249357783 -3.5 L 178.28915249357783 -0.5 L 117.31840437178892 -0.5 Z"/><text text-anchor="middle" pointer-events="none" font-size="8px" fill="#000000" x="101.64457624678892" y="3" font-family="sans-serif">CALLS</text></g><g class="relationship" transform="translate(450.67549538475544 440.8606968554181) rotate(287.32145911391785)"><path class="outline" fill="#A5ABB6" stroke="none" d="M 25 0.5 L 62.61930269235813 0.5 L 62.61930269235813 -0.5 L 25 -0.5 Z M 93.96695894235813 0.5 L 131.58626163471627 0.5 L 131.58626163471627 3.5 L 138.58626163471627 0 L 131.58626163471627 -3.5 L 131.58626163471627 -0.5 L 93.96695894235813 -0.5 Z"/><text text-anchor="middle" pointer-events="none" font-size="8px" fill="#000000" x="78.29313081735813" y="3" font-family="sans-serif">CALLS</text></g><g class="relationship" transform="translate(450.67549538475544 440.8606968554181) rotate(315.4708793842577)"><path class="outline" fill="#A5ABB6" stroke="none" d="M 25 0.5 L 100.65872824415312 0.5 L 100.65872824415312 -0.5 L 25 -0.5 Z M 132.0063844941531 0.5 L 207.66511273830625 0.5 L 207.66511273830625 3.5 L 214.66511273830625 0 L 207.66511273830625 -3.5 L 207.66511273830625 -0.5 L 132.0063844941531 -0.5 Z"/><text text-anchor="middle" pointer-events="none" font-size="8px" fill="#000000" x="116.33255636915312" y="3" font-family="sans-serif">CALLS</text></g><g class="relationship" transform="translate(450.67549538475544 440.8606968554181) rotate(283.7613025061475)"><path class="outline" fill="#A5ABB6" stroke="none" d="M 25 0.5 L 115.61437175637496 0.5 L 115.61437175637496 -0.5 L 25 -0.5 Z M 146.96202800637496 0.5 L 237.57639976274993 0.5 L 237.57639976274993 3.5 L 244.57639976274993 0 L 237.57639976274993 -3.5 L 237.57639976274993 -0.5 L 146.96202800637496 -0.5 Z"/><text text-anchor="middle" pointer-events="none" font-size="8px" fill="#000000" x="131.28819988137496" y="3" font-family="sans-serif">CALLS</text></g><g class="relationship" transform="translate(450.67549538475544 440.8606968554181) rotate(292.96942540304815)"><path class="outline" fill="#A5ABB6" stroke="none" d="M 25 0.5 L 91.10739464089237 0.5 L 91.10739464089237 -0.5 L 25 -0.5 Z M 122.45505089089237 0.5 L 188.56244553178473 0.5 L 188.56244553178473 3.5 L 195.56244553178473 0 L 188.56244553178473 -3.5 L 188.56244553178473 -0.5 L 122.45505089089237 -0.5 Z"/><text text-anchor="middle" pointer-events="none" font-size="8px" fill="#000000" x="106.78122276589237" y="3" font-family="sans-serif">CALLS</text></g><g class="relationship" transform="translate(450.67549538475544 440.8606968554181) rotate(301.484850127531)"><path class="outline" fill="#A5ABB6" stroke="none" d="M 25 0.5 L 115.03117743870229 0.5 L 115.03117743870229 -0.5 L 25 -0.5 Z M 146.3788336887023 0.5 L 236.41001112740457 0.5 L 236.41001112740457 3.5 L 243.41001112740457 0 L 236.41001112740457 -3.5 L 236.41001112740457 -0.5 L 146.3788336887023 -0.5 Z"/><text text-anchor="middle" pointer-events="none" font-size="8px" fill="#000000" x="130.7050055637023" y="3" font-family="sans-serif">CALLS</text></g><g class="relationship" transform="translate(610.4880600350712 -30.03857828997372) rotate(207.60870051260167)"><path class="outline" fill="#A5ABB6" stroke="none" d="M 25 0.5 L 79.09241619486585 0.5 L 79.09241619486585 -0.5 L 25 -0.5 Z M 132.51819744486585 0.5 L 186.6106136397317 0.5 L 186.6106136397317 3.5 L 193.6106136397317 0 L 186.6106136397317 -3.5 L 186.6106136397317 -0.5 L 132.51819744486585 -0.5 Z"/><text text-anchor="middle" pointer-events="none" font-size="8px" fill="#000000" x="105.80530681986585" y="3" transform="rotate(180 105.80530681986585 0)" font-family="sans-serif">SIMILAR_TO</text></g><g class="relationship" transform="translate(610.4880600350712 -30.03857828997372) rotate(480.2449812007837)"><path class="outline" fill="#A5ABB6" stroke="none" d="M 25 0.5 L 120.70740591770661 0.5 L 120.70740591770661 -0.5 L 25 -0.5 Z M 174.1331871677066 0.5 L 269.8405930854132 0.5 L 269.8405930854132 3.5 L 276.8405930854132 0 L 269.8405930854132 -3.5 L 269.8405930854132 -0.5 L 174.1331871677066 -0.5 Z"/><text text-anchor="middle" pointer-events="none" font-size="8px" fill="#000000" x="147.4202965427066" y="3" transform="rotate(180 147.4202965427066 0)" font-family="sans-serif">SIMILAR_TO</text></g><g class="relationship" transform="translate(639.6857779475083 28.700263383867455) rotate(207.29012702334342)"><path class="outline" fill="#A5ABB6" stroke="none" d="M 25 0.5 L 83.26458414906345 0.5 L 83.26458414906345 -0.5 L 25 -0.5 Z M 136.69036539906347 0.5 L 194.9549495481269 0.5 L 194.9549495481269 3.5 L 201.9549495481269 0 L 194.9549495481269 -3.5 L 194.9549495481269 -0.5 L 136.69036539906347 -0.5 Z"/><text text-anchor="middle" pointer-events="none" font-size="8px" fill="#000000" x="109.97747477406345" y="3" transform="rotate(180 109.97747477406345 0)" font-family="sans-serif">SIMILAR_TO</text></g><g class="relationship" transform="translate(639.6857779475083 28.700263383867455) rotate(478.7263951588853)"><path class="outline" fill="#A5ABB6" stroke="none" d="M 25 0.5 L 115.74768799606056 0.5 L 115.74768799606056 -0.5 L 25 -0.5 Z M 169.17346924606056 0.5 L 259.9211572421211 0.5 L 259.9211572421211 3.5 L 266.9211572421211 0 L 259.9211572421211 -3.5 L 259.9211572421211 -0.5 L 169.17346924606056 -0.5 Z"/><text text-anchor="middle" pointer-events="none" font-size="8px" fill="#000000" x="142.46057862106056" y="3" transform="rotate(180 142.46057862106056 0)" font-family="sans-serif">SIMILAR_TO</text></g><g class="relationship" transform="translate(747.9283663501272 -0.6781814368866479) rotate(217.18792889281372)"><path class="outline" fill="#A5ABB6" stroke="none" d="M 25 0.5 L 92.39330862625081 0.5 L 92.39330862625081 -0.5 L 25 -0.5 Z M 145.8190898762508 0.5 L 213.21239850250163 0.5 L 213.21239850250163 3.5 L 220.21239850250163 0 L 213.21239850250163 -3.5 L 213.21239850250163 -0.5 L 145.8190898762508 -0.5 Z"/><text text-anchor="middle" pointer-events="none" font-size="8px" fill="#000000" x="119.10619925125081" y="3" transform="rotate(180 119.10619925125081 0)" font-family="sans-serif">SIMILAR_TO</text></g><g class="relationship" transform="translate(747.9283663501272 -0.6781814368866479) rotate(474.80635759023426)"><path class="outline" fill="#A5ABB6" stroke="none" d="M 25 0.5 L 120.42013952661071 0.5 L 120.42013952661071 -0.5 L 25 -0.5 Z M 173.8459207766107 0.5 L 269.2660603032214 0.5 L 269.2660603032214 3.5 L 276.2660603032214 0 L 269.2660603032214 -3.5 L 269.2660603032214 -0.5 L 173.8459207766107 -0.5 Z"/><text text-anchor="middle" pointer-events="none" font-size="8px" fill="#000000" x="147.1330301516107" y="3" transform="rotate(180 147.1330301516107 0)" font-family="sans-serif">SIMILAR_TO</text></g><g class="relationship" transform="translate(663.8454379895919 -108.94406064479577) rotate(223.1141429319665)"><path class="outline" fill="#A5ABB6" stroke="none" d="M 25 0.5 L 77.48649169540639 0.5 L 77.48649169540639 -0.5 L 25 -0.5 Z M 130.9122729454064 0.5 L 183.39876464081277 0.5 L 183.39876464081277 3.5 L 190.39876464081277 0 L 183.39876464081277 -3.5 L 183.39876464081277 -0.5 L 130.9122729454064 -0.5 Z"/><text text-anchor="middle" pointer-events="none" font-size="8px" fill="#000000" x="104.19938232040639" y="3" transform="rotate(180 104.19938232040639 0)" font-family="sans-serif">SIMILAR_TO</text></g><g class="relationship" transform="translate(663.8454379895919 -108.94406064479577) rotate(477.3648787057248)"><path class="outline" fill="#A5ABB6" stroke="none" d="M 25 0.5 L 131.91264455368812 0.5 L 131.91264455368812 -0.5 L 25 -0.5 Z M 185.33842580368812 0.5 L 292.25107035737625 0.5 L 292.25107035737625 3.5 L 299.25107035737625 0 L 292.25107035737625 -3.5 L 292.25107035737625 -0.5 L 185.33842580368812 -0.5 Z"/><text text-anchor="middle" pointer-events="none" font-size="8px" fill="#000000" x="158.62553517868812" y="3" transform="rotate(180 158.62553517868812 0)" font-family="sans-serif">SIMILAR_TO</text></g><g class="relationship" transform="translate(673.5710185090651 -33.10350207366323) rotate(214.78497824791708)"><path class="outline" fill="#A5ABB6" stroke="none" d="M 25 0.5 L 82.65544197290532 0.5 L 82.65544197290532 -0.5 L 25 -0.5 Z M 136.08122322290532 0.5 L 193.73666519581064 0.5 L 193.73666519581064 3.5 L 200.73666519581064 0 L 193.73666519581064 -3.5 L 193.73666519581064 -0.5 L 136.08122322290532 -0.5 Z"/><text text-anchor="middle" pointer-events="none" font-size="8px" fill="#000000" x="109.36833259790532" y="3" transform="rotate(180 109.36833259790532 0)" font-family="sans-serif">SIMILAR_TO</text></g><g class="relationship" transform="translate(673.5710185090651 -33.10350207366323) rotate(476.7978366832809)"><path class="outline" fill="#A5ABB6" stroke="none" d="M 25 0.5 L 121.52841316498683 0.5 L 121.52841316498683 -0.5 L 25 -0.5 Z M 174.95419441498683 0.5 L 271.48260757997366 0.5 L 271.48260757997366 3.5 L 278.48260757997366 0 L 271.48260757997366 -3.5 L 271.48260757997366 -0.5 L 174.95419441498683 -0.5 Z"/><text text-anchor="middle" pointer-events="none" font-size="8px" fill="#000000" x="148.24130378998683" y="3" transform="rotate(180 148.24130378998683 0)" font-family="sans-serif">SIMILAR_TO</text></g><g class="relationship" transform="translate(720.9291206888299 -69.87644463617904) rotate(221.09894098621925)"><path class="outline" fill="#A5ABB6" stroke="none" d="M 25 0.5 L 81.80267758110895 0.5 L 81.80267758110895 -0.5 L 25 -0.5 Z M 135.22845883110895 0.5 L 192.0311364122179 0.5 L 192.0311364122179 3.5 L 199.0311364122179 0 L 192.0311364122179 -3.5 L 192.0311364122179 -0.5 L 135.22845883110895 -0.5 Z"/><text text-anchor="middle" pointer-events="none" font-size="8px" fill="#000000" x="108.51556820610895" y="3" transform="rotate(180 108.51556820610895 0)" font-family="sans-serif">SIMILAR_TO</text></g><g class="relationship" transform="translate(720.9291206888299 -69.87644463617904) rotate(474.77328941613297)"><path class="outline" fill="#A5ABB6" stroke="none" d="M 25 0.5 L 124.99157840342261 0.5 L 124.99157840342261 -0.5 L 25 -0.5 Z M 178.4173596534226 0.5 L 278.4089380568452 0.5 L 278.4089380568452 3.5 L 285.4089380568452 0 L 278.4089380568452 -3.5 L 278.4089380568452 -0.5 L 178.4173596534226 -0.5 Z"/><text text-anchor="middle" pointer-events="none" font-size="8px" fill="#000000" x="151.7044690284226" y="3" transform="rotate(180 151.7044690284226 0)" font-family="sans-serif">SIMILAR_TO</text></g><g class="relationship" transform="translate(376.8146986473329 -254.6082560538062) rotate(359.3153717236238)"><path class="outline" fill="#A5ABB6" stroke="none" d="M 25 0.5 L 45.72631544617674 0.5 L 45.72631544617674 -0.5 L 25 -0.5 Z M 77.07397169617674 0.5 L 97.80028714235348 0.5 L 97.80028714235348 3.5 L 104.80028714235348 0 L 97.80028714235348 -3.5 L 97.80028714235348 -0.5 L 77.07397169617674 -0.5 Z"/><text text-anchor="middle" pointer-events="none" font-size="8px" fill="#000000" x="61.40014357117674" y="3" font-family="sans-serif">CALLS</text></g><g class="relationship" transform="translate(376.8146986473329 -254.6082560538062) rotate(372.0635827150702)"><path class="outline" fill="#A5ABB6" stroke="none" d="M 25 0.5 L 70.45042789437485 0.5 L 70.45042789437485 -0.5 L 25 -0.5 Z M 101.79808414437485 0.5 L 147.2485120387497 0.5 L 147.2485120387497 3.5 L 154.2485120387497 0 L 147.2485120387497 -3.5 L 147.2485120387497 -0.5 L 101.79808414437485 -0.5 Z"/><text text-anchor="middle" pointer-events="none" font-size="8px" fill="#000000" x="86.12425601937485" y="3" font-family="sans-serif">CALLS</text></g><g class="relationship" transform="translate(376.8146986473329 -254.6082560538062) rotate(399.78223033550574)"><path class="outline" fill="#A5ABB6" stroke="none" d="M 25 0.5 L 53.28009008328094 0.5 L 53.28009008328094 -0.5 L 25 -0.5 Z M 84.62774633328094 0.5 L 112.90783641656188 0.5 L 112.90783641656188 3.5 L 119.90783641656188 0 L 112.90783641656188 -3.5 L 112.90783641656188 -0.5 L 84.62774633328094 -0.5 Z"/><text text-anchor="middle" pointer-events="none" font-size="8px" fill="#000000" x="68.95391820828094" y="3" font-family="sans-serif">CALLS</text></g><g class="relationship" transform="translate(376.8146986473329 -254.6082560538062) rotate(391.0255508492699)"><path class="outline" fill="#A5ABB6" stroke="none" d="M 25 0.5 L 83.37940269463087 0.5 L 83.37940269463087 -0.5 L 25 -0.5 Z M 114.72705894463087 0.5 L 173.10646163926174 0.5 L 173.10646163926174 3.5 L 180.10646163926174 0 L 173.10646163926174 -3.5 L 173.10646163926174 -0.5 L 114.72705894463087 -0.5 Z"/><text text-anchor="middle" pointer-events="none" font-size="8px" fill="#000000" x="99.05323081963087" y="3" font-family="sans-serif">CALLS</text></g><g class="relationship" transform="translate(376.8146986473329 -254.6082560538062) rotate(431.1555489448118)"><path class="outline" fill="#A5ABB6" stroke="none" d="M 25 0.5 L 75.52750547282187 0.5 L 75.52750547282187 -0.5 L 25 -0.5 Z M 106.87516172282187 0.5 L 157.40266719564374 0.5 L 157.40266719564374 3.5 L 164.40266719564374 0 L 157.40266719564374 -3.5 L 157.40266719564374 -0.5 L 106.87516172282187 -0.5 Z"/><text text-anchor="middle" pointer-events="none" font-size="8px" fill="#000000" x="91.20133359782187" y="3" font-family="sans-serif">CALLS</text></g><g class="relationship" transform="translate(376.8146986473329 -254.6082560538062) rotate(412.4634601201488)"><path class="outline" fill="#A5ABB6" stroke="none" d="M 25 0.5 L 85.12291663377059 0.5 L 85.12291663377059 -0.5 L 25 -0.5 Z M 116.47057288377059 0.5 L 176.59348951754117 0.5 L 176.59348951754117 3.5 L 183.59348951754117 0 L 176.59348951754117 -3.5 L 176.59348951754117 -0.5 L 116.47057288377059 -0.5 Z"/><text text-anchor="middle" pointer-events="none" font-size="8px" fill="#000000" x="100.79674475877059" y="3" font-family="sans-serif">CALLS</text></g><g class="relationship" transform="translate(376.8146986473329 -254.6082560538062) rotate(432.03952562157735)"><path class="outline" fill="#A5ABB6" stroke="none" d="M 25 0.5 L 45.61266711226264 0.5 L 45.61266711226264 -0.5 L 25 -0.5 Z M 76.96032336226264 0.5 L 97.57299047452528 0.5 L 97.57299047452528 3.5 L 104.57299047452528 0 L 97.57299047452528 -3.5 L 97.57299047452528 -0.5 L 76.96032336226264 -0.5 Z"/><text text-anchor="middle" pointer-events="none" font-size="8px" fill="#000000" x="61.28649523726264" y="3" font-family="sans-serif">CALLS</text></g><g class="relationship" transform="translate(-571.9246595674628 -179.57065518391994) rotate(337.5122276058953)"><path class="outline" fill="#A5ABB6" stroke="none" d="M 25 0.5 L 109.59568072743454 0.5 L 109.59568072743454 -0.5 L 25 -0.5 Z M 140.94333697743454 0.5 L 225.53901770486908 0.5 L 225.53901770486908 3.5 L 232.53901770486908 0 L 225.53901770486908 -3.5 L 225.53901770486908 -0.5 L 140.94333697743454 -0.5 Z"/><text text-anchor="middle" pointer-events="none" font-size="8px" fill="#000000" x="125.26950885243454" y="3" font-family="sans-serif">CALLS</text></g><g class="relationship" transform="translate(-571.9246595674628 -179.57065518391994) rotate(345.25175478249105)"><path class="outline" fill="#A5ABB6" stroke="none" d="M 25 0.5 L 65.69298265980129 0.5 L 65.69298265980129 -0.5 L 25 -0.5 Z M 97.04063890980129 0.5 L 137.73362156960258 0.5 L 137.73362156960258 3.5 L 144.73362156960258 0 L 137.73362156960258 -3.5 L 137.73362156960258 -0.5 L 97.04063890980129 -0.5 Z"/><text text-anchor="middle" pointer-events="none" font-size="8px" fill="#000000" x="81.36681078480129" y="3" font-family="sans-serif">CALLS</text></g><g class="relationship" transform="translate(-571.9246595674628 -179.57065518391994) rotate(324.8877904921647)"><path class="outline" fill="#A5ABB6" stroke="none" d="M 25 0.5 L 74.69351844865406 0.5 L 74.69351844865406 -0.5 L 25 -0.5 Z M 106.04117469865406 0.5 L 155.73469314730812 0.5 L 155.73469314730812 3.5 L 162.73469314730812 0 L 155.73469314730812 -3.5 L 155.73469314730812 -0.5 L 106.04117469865406 -0.5 Z"/><text text-anchor="middle" pointer-events="none" font-size="8px" fill="#000000" x="90.36734657365406" y="3" font-family="sans-serif">CALLS</text></g><g class="relationship" transform="translate(-571.9246595674628 -179.57065518391994) rotate(405.47489948036053)"><path class="outline" fill="#A5ABB6" stroke="none" d="M 25 0.5 L 108.87506923703558 0.5 L 108.87506923703558 -0.5 L 25 -0.5 Z M 140.22272548703558 0.5 L 224.09779472407115 0.5 L 224.09779472407115 3.5 L 231.09779472407115 0 L 224.09779472407115 -3.5 L 224.09779472407115 -0.5 L 140.22272548703558 -0.5 Z"/><text text-anchor="middle" pointer-events="none" font-size="8px" fill="#000000" x="124.54889736203558" y="3" font-family="sans-serif">CALLS</text></g><g class="relationship" transform="translate(-571.9246595674628 -179.57065518391994) rotate(462.82887248815143)"><path class="outline" fill="#A5ABB6" stroke="none" d="M 25 0.5 L 52.91620753642347 0.5 L 52.91620753642347 -0.5 L 25 -0.5 Z M 84.26386378642347 0.5 L 112.18007132284694 0.5 L 112.18007132284694 3.5 L 119.18007132284694 0 L 112.18007132284694 -3.5 L 112.18007132284694 -0.5 L 84.26386378642347 -0.5 Z"/><text text-anchor="middle" pointer-events="none" font-size="8px" fill="#000000" x="68.59003566142347" y="3" transform="rotate(180 68.59003566142347 0)" font-family="sans-serif">CALLS</text></g><g class="relationship" transform="translate(-571.9246595674628 -179.57065518391994) rotate(407.0934051003629)"><path class="outline" fill="#A5ABB6" stroke="none" d="M 25 0.5 L 139.4066568500257 0.5 L 139.4066568500257 -0.5 L 25 -0.5 Z M 170.7543131000257 0.5 L 285.1609699500514 0.5 L 285.1609699500514 3.5 L 292.1609699500514 0 L 285.1609699500514 -3.5 L 285.1609699500514 -0.5 L 170.7543131000257 -0.5 Z"/><text text-anchor="middle" pointer-events="none" font-size="8px" fill="#000000" x="155.0804849750257" y="3" font-family="sans-serif">CALLS</text></g><g class="relationship" transform="translate(-571.9246595674628 -179.57065518391994) rotate(386.35271119769425)"><path class="outline" fill="#A5ABB6" stroke="none" d="M 25 0.5 L 134.99465066359778 0.5 L 134.99465066359778 -0.5 L 25 -0.5 Z M 166.34230691359778 0.5 L 276.33695757719556 0.5 L 276.33695757719556 3.5 L 283.33695757719556 0 L 276.33695757719556 -3.5 L 276.33695757719556 -0.5 L 166.34230691359778 -0.5 Z"/><text text-anchor="middle" pointer-events="none" font-size="8px" fill="#000000" x="150.66847878859778" y="3" font-family="sans-serif">CALLS</text></g><g class="relationship" transform="translate(-571.9246595674628 -179.57065518391994) rotate(362.3107373311987)"><path class="outline" fill="#A5ABB6" stroke="none" d="M 25 0.5 L 79.17592076664198 0.5 L 79.17592076664198 -0.5 L 25 -0.5 Z M 110.52357701664198 0.5 L 164.69949778328396 0.5 L 164.69949778328396 3.5 L 171.69949778328396 0 L 164.69949778328396 -3.5 L 164.69949778328396 -0.5 L 110.52357701664198 -0.5 Z"/><text text-anchor="middle" pointer-events="none" font-size="8px" fill="#000000" x="94.84974889164198" y="3" font-family="sans-serif">CALLS</text></g><g class="relationship" transform="translate(-392.34333816939085 3.0125572630487505) rotate(420.5195886234503)"><path class="outline" fill="#A5ABB6" stroke="none" d="M 25 0.5 L 79.39308408585936 0.5 L 79.39308408585936 -0.5 L 25 -0.5 Z M 132.81886533585936 0.5 L 187.2119494217187 0.5 L 187.2119494217187 3.5 L 194.2119494217187 0 L 187.2119494217187 -3.5 L 187.2119494217187 -0.5 L 132.81886533585936 -0.5 Z"/><text text-anchor="middle" pointer-events="none" font-size="8px" fill="#000000" x="106.10597471085936" y="3" font-family="sans-serif">SIMILAR_TO</text></g><g class="relationship" transform="translate(-392.34333816939085 3.0125572630487505) rotate(494.4843694120812)"><path class="outline" fill="#A5ABB6" stroke="none" d="M 25 0.5 L 58.64235540398539 0.5 L 58.64235540398539 -0.5 L 25 -0.5 Z M 112.06813665398539 0.5 L 145.71049205797078 0.5 L 145.71049205797078 3.5 L 152.71049205797078 0 L 145.71049205797078 -3.5 L 145.71049205797078 -0.5 L 112.06813665398539 -0.5 Z"/><text text-anchor="middle" pointer-events="none" font-size="8px" fill="#000000" x="85.35524602898539" y="3" transform="rotate(180 85.35524602898539 0)" font-family="sans-serif">SIMILAR_TO</text></g><g class="relationship" transform="translate(-392.34333816939085 3.0125572630487505) rotate(327.7711818309655)"><path class="outline" fill="#A5ABB6" stroke="none" d="M 25 0.5 L 90.81159377656522 0.5 L 90.81159377656522 -0.5 L 25 -0.5 Z M 144.23737502656522 0.5 L 210.04896880313044 0.5 L 210.04896880313044 3.5 L 217.04896880313044 0 L 210.04896880313044 -3.5 L 210.04896880313044 -0.5 L 144.23737502656522 -0.5 Z"/><text text-anchor="middle" pointer-events="none" font-size="8px" fill="#000000" x="117.52448440156522" y="3" font-family="sans-serif">SIMILAR_TO</text></g><g class="relationship" transform="translate(-392.34333816939085 3.0125572630487505) rotate(380.6445286957278)"><path class="outline" fill="#A5ABB6" stroke="none" d="M 25 0.5 L 106.10175335449165 0.5 L 106.10175335449165 -0.5 L 25 -0.5 Z M 159.52753460449165 0.5 L 240.6292879589833 0.5 L 240.6292879589833 3.5 L 247.6292879589833 0 L 240.6292879589833 -3.5 L 240.6292879589833 -0.5 L 159.52753460449165 -0.5 Z"/><text text-anchor="middle" pointer-events="none" font-size="8px" fill="#000000" x="132.81464397949165" y="3" font-family="sans-serif">SIMILAR_TO</text></g><g class="relationship" transform="translate(-392.34333816939085 3.0125572630487505) rotate(453.84990779537276)"><path class="outline" fill="#A5ABB6" stroke="none" d="M 25 0.5 L 73.98153864463437 0.5 L 73.98153864463437 -0.5 L 25 -0.5 Z M 127.40731989463437 0.5 L 176.38885853926874 0.5 L 176.38885853926874 3.5 L 183.38885853926874 0 L 176.38885853926874 -3.5 L 176.38885853926874 -0.5 L 127.40731989463437 -0.5 Z"/><text text-anchor="middle" pointer-events="none" font-size="8px" fill="#000000" x="100.69442926963437" y="3" transform="rotate(180 100.69442926963437 0)" font-family="sans-serif">SIMILAR_TO</text></g><g class="relationship" transform="translate(-446.7191172911616 422.7673945888881) rotate(280.7932143182119)"><path class="outline" fill="#A5ABB6" stroke="none" d="M 25 0.5 L 88.65178637340401 0.5 L 88.65178637340401 -0.5 L 25 -0.5 Z M 119.99944262340401 0.5 L 183.65122899680802 0.5 L 183.65122899680802 3.5 L 190.65122899680802 0 L 183.65122899680802 -3.5 L 183.65122899680802 -0.5 L 119.99944262340401 -0.5 Z"/><text text-anchor="middle" pointer-events="none" font-size="8px" fill="#000000" x="104.32561449840401" y="3" font-family="sans-serif">CALLS</text></g><g class="relationship" transform="translate(-446.7191172911616 422.7673945888881) rotate(296.6330986255274)"><path class="outline" fill="#A5ABB6" stroke="none" d="M 25 0.5 L 70.53916524126788 0.5 L 70.53916524126788 -0.5 L 25 -0.5 Z M 101.88682149126788 0.5 L 147.42598673253576 0.5 L 147.42598673253576 3.5 L 154.42598673253576 0 L 147.42598673253576 -3.5 L 147.42598673253576 -0.5 L 101.88682149126788 -0.5 Z"/><text text-anchor="middle" pointer-events="none" font-size="8px" fill="#000000" x="86.21299336626788" y="3" font-family="sans-serif">CALLS</text></g><g class="relationship" transform="translate(-355.9998276579622 52.73850913060157) rotate(421.79465150048657)"><path class="outline" fill="#A5ABB6" stroke="none" d="M 25 0.5 L 79.46863846684265 0.5 L 79.46863846684265 -0.5 L 25 -0.5 Z M 132.89441971684266 0.5 L 187.3630581836853 0.5 L 187.3630581836853 3.5 L 194.3630581836853 0 L 187.3630581836853 -3.5 L 187.3630581836853 -0.5 L 132.89441971684266 -0.5 Z"/><text text-anchor="middle" pointer-events="none" font-size="8px" fill="#000000" x="106.18152909184265" y="3" font-family="sans-serif">SIMILAR_TO</text></g><g class="relationship" transform="translate(-355.9998276579622 52.73850913060157) rotate(493.25672777996726)"><path class="outline" fill="#A5ABB6" stroke="none" d="M 25 0.5 L 63.13190219637332 0.5 L 63.13190219637332 -0.5 L 25 -0.5 Z M 116.55768344637332 0.5 L 154.68958564274664 0.5 L 154.68958564274664 3.5 L 161.68958564274664 0 L 154.68958564274664 -3.5 L 154.68958564274664 -0.5 L 116.55768344637332 -0.5 Z"/><text text-anchor="middle" pointer-events="none" font-size="8px" fill="#000000" x="89.84479282137332" y="3" transform="rotate(180 89.84479282137332 0)" font-family="sans-serif">SIMILAR_TO</text></g><g class="relationship" transform="translate(-355.9998276579622 52.73850913060157) rotate(328.23292887529357)"><path class="outline" fill="#A5ABB6" stroke="none" d="M 25 0.5 L 93.50543292176684 0.5 L 93.50543292176684 -0.5 L 25 -0.5 Z M 146.93121417176684 0.5 L 215.43664709353368 0.5 L 215.43664709353368 3.5 L 222.43664709353368 0 L 215.43664709353368 -3.5 L 215.43664709353368 -0.5 L 146.93121417176684 -0.5 Z"/><text text-anchor="middle" pointer-events="none" font-size="8px" fill="#000000" x="120.21832354676684" y="3" font-family="sans-serif">SIMILAR_TO</text></g><g class="relationship" transform="translate(-355.9998276579622 52.73850913060157) rotate(383.171818586993)"><path class="outline" fill="#A5ABB6" stroke="none" d="M 25 0.5 L 106.07136483591228 0.5 L 106.07136483591228 -0.5 L 25 -0.5 Z M 159.49714608591228 0.5 L 240.56851092182455 0.5 L 240.56851092182455 3.5 L 247.56851092182455 0 L 240.56851092182455 -3.5 L 240.56851092182455 -0.5 L 159.49714608591228 -0.5 Z"/><text text-anchor="middle" pointer-events="none" font-size="8px" fill="#000000" x="132.78425546091228" y="3" font-family="sans-serif">SIMILAR_TO</text></g><g class="relationship" transform="translate(-355.9998276579622 52.73850913060157) rotate(452.8092321001089)"><path class="outline" fill="#A5ABB6" stroke="none" d="M 25 0.5 L 74.73363681919326 0.5 L 74.73363681919326 -0.5 L 25 -0.5 Z M 128.15941806919326 0.5 L 177.89305488838653 0.5 L 177.89305488838653 3.5 L 184.89305488838653 0 L 177.89305488838653 -3.5 L 177.89305488838653 -0.5 L 128.15941806919326 -0.5 Z"/><text text-anchor="middle" pointer-events="none" font-size="8px" fill="#000000" x="101.44652744419326" y="3" transform="rotate(180 101.44652744419326 0)" font-family="sans-serif">SIMILAR_TO</text></g><g class="relationship" transform="translate(122.30142444764796 191.1122529122365) rotate(187.7819476712096)"><path class="outline" fill="#A5ABB6" stroke="none" d="M 25 0.5 L 95.7450704397106 0.5 L 95.7450704397106 -0.5 L 25 -0.5 Z M 127.0927266897106 0.5 L 197.8377971294212 0.5 L 197.8377971294212 3.5 L 204.8377971294212 0 L 197.8377971294212 -3.5 L 197.8377971294212 -0.5 L 127.0927266897106 -0.5 Z"/><text text-anchor="middle" pointer-events="none" font-size="8px" fill="#000000" x="111.4188985647106" y="3" transform="rotate(180 111.4188985647106 0)" font-family="sans-serif">CALLS</text></g><g class="relationship" transform="translate(122.30142444764796 191.1122529122365) rotate(199.51519095859766)"><path class="outline" fill="#A5ABB6" stroke="none" d="M 25 0.5 L 118.49596632812217 0.5 L 118.49596632812217 -0.5 L 25 -0.5 Z M 149.84362257812217 0.5 L 243.33958890624433 0.5 L 243.33958890624433 3.5 L 250.33958890624433 0 L 243.33958890624433 -3.5 L 243.33958890624433 -0.5 L 149.84362257812217 -0.5 Z"/><text text-anchor="middle" pointer-events="none" font-size="8px" fill="#000000" x="134.16979445312217" y="3" transform="rotate(180 134.16979445312217 0)" font-family="sans-serif">CALLS</text></g><g class="relationship" transform="translate(122.30142444764796 191.1122529122365) rotate(212.96235122226068)"><path class="outline" fill="#A5ABB6" stroke="none" d="M 25 0.5 L 88.19153652863676 0.5 L 88.19153652863676 -0.5 L 25 -0.5 Z M 119.53919277863676 0.5 L 182.73072930727352 0.5 L 182.73072930727352 3.5 L 189.73072930727352 0 L 182.73072930727352 -3.5 L 182.73072930727352 -0.5 L 119.53919277863676 -0.5 Z"/><text text-anchor="middle" pointer-events="none" font-size="8px" fill="#000000" x="103.86536465363676" y="3" transform="rotate(180 103.86536465363676 0)" font-family="sans-serif">CALLS</text></g><g class="relationship" transform="translate(-295.6305618856646 -42.70118819379005) rotate(427.32646328052687)"><path class="outline" fill="#A5ABB6" stroke="none" d="M 25 0.5 L 90.87046613278476 0.5 L 90.87046613278476 -0.5 L 25 -0.5 Z M 144.29624738278477 0.5 L 210.1667135155695 0.5 L 210.1667135155695 3.5 L 217.1667135155695 0 L 210.1667135155695 -3.5 L 210.1667135155695 -0.5 L 144.29624738278477 -0.5 Z"/><text text-anchor="middle" pointer-events="none" font-size="8px" fill="#000000" x="117.58335675778476" y="3" font-family="sans-serif">SIMILAR_TO</text></g><g class="relationship" transform="translate(-295.6305618856646 -42.70118819379005) rotate(337.208921071845)"><path class="outline" fill="#A5ABB6" stroke="none" d="M 25 0.5 L 81.14308186435761 0.5 L 81.14308186435761 -0.5 L 25 -0.5 Z M 134.5688631143576 0.5 L 190.71194497871522 0.5 L 190.71194497871522 3.5 L 197.71194497871522 0 L 190.71194497871522 -3.5 L 190.71194497871522 -0.5 L 134.5688631143576 -0.5 Z"/><text text-anchor="middle" pointer-events="none" font-size="8px" fill="#000000" x="107.85597248935761" y="3" font-family="sans-serif">SIMILAR_TO</text></g><g class="relationship" transform="translate(-295.6305618856646 -42.70118819379005) rotate(386.19714369057067)"><path class="outline" fill="#A5ABB6" stroke="none" d="M 25 0.5 L 102.28016307841818 0.5 L 102.28016307841818 -0.5 L 25 -0.5 Z M 155.70594432841818 0.5 L 232.98610740683637 0.5 L 232.98610740683637 3.5 L 239.98610740683637 0 L 232.98610740683637 -3.5 L 232.98610740683637 -0.5 L 155.70594432841818 -0.5 Z"/><text text-anchor="middle" pointer-events="none" font-size="8px" fill="#000000" x="128.99305370341818" y="3" font-family="sans-serif">SIMILAR_TO</text></g><g class="relationship" transform="translate(-407.78312668916027 -222.78013881302854) rotate(351.9539638125982)"><path class="outline" fill="#A5ABB6" stroke="none" d="M 25 0.5 L 85.89178682110844 0.5 L 85.89178682110844 -0.5 L 25 -0.5 Z M 139.31756807110844 0.5 L 200.20935489221688 0.5 L 200.20935489221688 3.5 L 207.20935489221688 0 L 200.20935489221688 -3.5 L 200.20935489221688 -0.5 L 139.31756807110844 -0.5 Z"/><text text-anchor="middle" pointer-events="none" font-size="8px" fill="#000000" x="112.60467744610844" y="3" font-family="sans-serif">SIMILAR_TO</text></g><g class="relationship" transform="translate(-0.5436789830448845 -261.7920907783677) rotate(537.8974106708729)"><path class="outline" fill="#A5ABB6" stroke="none" d="M 25 0.5 L 69.54389171384828 0.5 L 69.54389171384828 -0.5 L 25 -0.5 Z M 100.89154796384828 0.5 L 145.43543967769656 0.5 L 145.43543967769656 3.5 L 152.43543967769656 0 L 145.43543967769656 -3.5 L 145.43543967769656 -0.5 L 100.89154796384828 -0.5 Z"/><text text-anchor="middle" pointer-events="none" font-size="8px" fill="#000000" x="85.21771983884828" y="3" transform="rotate(180 85.21771983884828 0)" font-family="sans-serif">CALLS</text></g><g class="relationship" transform="translate(-0.5436789830448845 -261.7920907783677) rotate(518.3099633060767)"><path class="outline" fill="#A5ABB6" stroke="none" d="M 25 0.5 L 55.27691895837249 0.5 L 55.27691895837249 -0.5 L 25 -0.5 Z M 86.62457520837249 0.5 L 116.90149416674498 0.5 L 116.90149416674498 3.5 L 123.90149416674498 0 L 116.90149416674498 -3.5 L 116.90149416674498 -0.5 L 86.62457520837249 -0.5 Z"/><text text-anchor="middle" pointer-events="none" font-size="8px" fill="#000000" x="70.95074708337249" y="3" transform="rotate(180 70.95074708337249 0)" font-family="sans-serif">CALLS</text></g><g class="relationship" transform="translate(-0.5436789830448845 -261.7920907783677) rotate(194.08314398642688)"><path class="outline" fill="#A5ABB6" stroke="none" d="M 25 0.5 L 45.03706174431697 0.5 L 45.03706174431697 -0.5 L 25 -0.5 Z M 76.38471799431697 0.5 L 96.42177973863394 0.5 L 96.42177973863394 3.5 L 103.42177973863394 0 L 96.42177973863394 -3.5 L 96.42177973863394 -0.5 L 76.38471799431697 -0.5 Z"/><text text-anchor="middle" pointer-events="none" font-size="8px" fill="#000000" x="60.71088986931697" y="3" transform="rotate(180 60.71088986931697 0)" font-family="sans-serif">CALLS</text></g><g class="relationship" transform="translate(-0.5436789830448845 -261.7920907783677) rotate(216.17542049582977)"><path class="outline" fill="#A5ABB6" stroke="none" d="M 25 0.5 L 57.95754048696489 0.5 L 57.95754048696489 -0.5 L 25 -0.5 Z M 89.30519673696489 0.5 L 122.26273722392978 0.5 L 122.26273722392978 3.5 L 129.26273722392978 0 L 122.26273722392978 -3.5 L 122.26273722392978 -0.5 L 89.30519673696489 -0.5 Z"/><text text-anchor="middle" pointer-events="none" font-size="8px" fill="#000000" x="73.63136861196489" y="3" transform="rotate(180 73.63136861196489 0)" font-family="sans-serif">CALLS</text></g><g class="relationship" transform="translate(-0.5436789830448845 -261.7920907783677) rotate(199.33001979958868)"><path class="outline" fill="#A5ABB6" stroke="none" d="M 25 0.5 L 78.4278233961178 0.5 L 78.4278233961178 -0.5 L 25 -0.5 Z M 109.7754796461178 0.5 L 163.2033030422356 0.5 L 163.2033030422356 3.5 L 170.2033030422356 0 L 163.2033030422356 -3.5 L 163.2033030422356 -0.5 L 109.7754796461178 -0.5 Z"/><text text-anchor="middle" pointer-events="none" font-size="8px" fill="#000000" x="94.1016515211178" y="3" transform="rotate(180 94.1016515211178 0)" font-family="sans-serif">CALLS</text></g><g class="relationship" transform="translate(-0.5436789830448845 -261.7920907783677) rotate(484.05223594350946)"><path class="outline" fill="#A5ABB6" stroke="none" d="M 25 0.5 L 60.979536728855734 0.5 L 60.979536728855734 -0.5 L 25 -0.5 Z M 92.32719297885573 0.5 L 128.30672970771147 0.5 L 128.30672970771147 3.5 L 135.30672970771147 0 L 128.30672970771147 -3.5 L 128.30672970771147 -0.5 L 92.32719297885573 -0.5 Z"/><text text-anchor="middle" pointer-events="none" font-size="8px" fill="#000000" x="76.65336485385573" y="3" transform="rotate(180 76.65336485385573 0)" font-family="sans-serif">CALLS</text></g><g class="relationship" transform="translate(-0.5436789830448845 -261.7920907783677) rotate(504.03534251460997)"><path class="outline" fill="#A5ABB6" stroke="none" d="M 25 0.5 L 96.37419144269114 0.5 L 96.37419144269114 -0.5 L 25 -0.5 Z M 127.72184769269114 0.5 L 199.09603913538228 0.5 L 199.09603913538228 3.5 L 206.09603913538228 0 L 199.09603913538228 -3.5 L 199.09603913538228 -0.5 L 127.72184769269114 -0.5 Z"/><text text-anchor="middle" pointer-events="none" font-size="8px" fill="#000000" x="112.04801956769114" y="3" transform="rotate(180 112.04801956769114 0)" font-family="sans-serif">CALLS</text></g><g class="relationship" transform="translate(-0.5436789830448845 -261.7920907783677) rotate(488.2164580957685)"><path class="outline" fill="#A5ABB6" stroke="none" d="M 25 0.5 L 98.08987218474162 0.5 L 98.08987218474162 -0.5 L 25 -0.5 Z M 129.43752843474164 0.5 L 202.52740061948325 0.5 L 202.52740061948325 3.5 L 209.52740061948325 0 L 202.52740061948325 -3.5 L 202.52740061948325 -0.5 L 129.43752843474164 -0.5 Z"/><text text-anchor="middle" pointer-events="none" font-size="8px" fill="#000000" x="113.76370030974162" y="3" transform="rotate(180 113.76370030974162 0)" font-family="sans-serif">CALLS</text></g><g class="relationship" transform="translate(-375.38510664334797 -171.63991974606722) rotate(351.5526617337513)"><path class="outline" fill="#A5ABB6" stroke="none" d="M 25 0.5 L 89.32525672839719 0.5 L 89.32525672839719 -0.5 L 25 -0.5 Z M 142.7510379783972 0.5 L 207.07629470679439 0.5 L 207.07629470679439 3.5 L 214.07629470679439 0 L 207.07629470679439 -3.5 L 207.07629470679439 -0.5 L 142.7510379783972 -0.5 Z"/><text text-anchor="middle" pointer-events="none" font-size="8px" fill="#000000" x="116.03814735339719" y="3" font-family="sans-serif">SIMILAR_TO</text></g><g class="relationship" transform="translate(-333.96860469210424 -278.0757900173093) rotate(340.3064155402973)"><path class="outline" fill="#A5ABB6" stroke="none" d="M 25 0.5 L 80.72715587690992 0.5 L 80.72715587690992 -0.5 L 25 -0.5 Z M 134.15293712690993 0.5 L 189.88009300381984 0.5 L 189.88009300381984 3.5 L 196.88009300381984 0 L 189.88009300381984 -3.5 L 189.88009300381984 -0.5 L 134.15293712690993 -0.5 Z"/><text text-anchor="middle" pointer-events="none" font-size="8px" fill="#000000" x="107.44004650190992" y="3" font-family="sans-serif">SIMILAR_TO</text></g><g class="relationship" transform="translate(-333.96860469210424 -278.0757900173093) rotate(355.90173532876724)"><path class="outline" fill="#A5ABB6" stroke="none" d="M 25 0.5 L 74.48634918897856 0.5 L 74.48634918897856 -0.5 L 25 -0.5 Z M 127.91213043897856 0.5 L 177.39847962795713 0.5 L 177.39847962795713 3.5 L 184.39847962795713 0 L 177.39847962795713 -3.5 L 177.39847962795713 -0.5 L 127.91213043897856 -0.5 Z"/><text text-anchor="middle" pointer-events="none" font-size="8px" fill="#000000" x="101.19923981397856" y="3" font-family="sans-serif">SIMILAR_TO</text></g><g class="relationship" transform="translate(-418.35258029699264 -287.5518177987871) rotate(350.5569250356526)"><path class="outline" fill="#A5ABB6" stroke="none" d="M 25 0.5 L 88.196497326084 0.5 L 88.196497326084 -0.5 L 25 -0.5 Z M 141.622278576084 0.5 L 204.818775902168 0.5 L 204.818775902168 3.5 L 211.818775902168 0 L 204.818775902168 -3.5 L 204.818775902168 -0.5 L 141.622278576084 -0.5 Z"/><text text-anchor="middle" pointer-events="none" font-size="8px" fill="#000000" x="114.909387951084" y="3" font-family="sans-serif">SIMILAR_TO</text></g><g class="relationship" transform="translate(-646.4450059831212 263.3845675144662) rotate(314.12731147663857)"><path class="outline" fill="#A5ABB6" stroke="none" d="M 25 0.5 L 73.87923085179335 0.5 L 73.87923085179335 -0.5 L 25 -0.5 Z M 105.22688710179335 0.5 L 154.1061179535867 0.5 L 154.1061179535867 3.5 L 161.1061179535867 0 L 154.1061179535867 -3.5 L 154.1061179535867 -0.5 L 105.22688710179335 -0.5 Z"/><text text-anchor="middle" pointer-events="none" font-size="8px" fill="#000000" x="89.55305897679335" y="3" font-family="sans-serif">CALLS</text></g><g class="relationship" transform="translate(-646.4450059831212 263.3845675144662) rotate(335.31911525680016)"><path class="outline" fill="#A5ABB6" stroke="none" d="M 25 0.5 L 70.25176155469936 0.5 L 70.25176155469936 -0.5 L 25 -0.5 Z M 101.59941780469936 0.5 L 146.8511793593987 0.5 L 146.8511793593987 3.5 L 153.8511793593987 0 L 146.8511793593987 -3.5 L 146.8511793593987 -0.5 L 101.59941780469936 -0.5 Z"/><text text-anchor="middle" pointer-events="none" font-size="8px" fill="#000000" x="85.92558967969936" y="3" font-family="sans-serif">CALLS</text></g><g class="relationship" transform="translate(-646.4450059831212 263.3845675144662) rotate(274.6794740671503)"><path class="outline" fill="#A5ABB6" stroke="none" d="M 25 0.5 L 51.12399848092301 0.5 L 51.12399848092301 -0.5 L 25 -0.5 Z M 82.471654730923 0.5 L 108.59565321184601 0.5 L 108.59565321184601 3.5 L 115.59565321184601 0 L 108.59565321184601 -3.5 L 108.59565321184601 -0.5 L 82.471654730923 -0.5 Z"/><text text-anchor="middle" pointer-events="none" font-size="8px" fill="#000000" x="66.797826605923" y="3" font-family="sans-serif">CALLS</text></g><g class="relationship" transform="translate(-603.9383833867653 -38.98966623490646) rotate(460.82940595470336)"><path class="outline" fill="#A5ABB6" stroke="none" d="M 25 0.5 L 52.38165528347017 0.5 L 52.38165528347017 -0.5 L 25 -0.5 Z M 105.80743653347017 0.5 L 133.18909181694033 0.5 L 133.18909181694033 3.5 L 140.18909181694033 0 L 133.18909181694033 -3.5 L 133.18909181694033 -0.5 L 105.80743653347017 -0.5 Z"/><text text-anchor="middle" pointer-events="none" font-size="8px" fill="#000000" x="79.09454590847017" y="3" transform="rotate(180 79.09454590847017 0)" font-family="sans-serif">SIMILAR_TO</text></g><g class="relationship" transform="translate(-178.70433474261338 379.96521162313024) rotate(240.39387765481302)"><path class="outline" fill="#A5ABB6" stroke="none" d="M 25 0.5 L 87.8622714012724 0.5 L 87.8622714012724 -0.5 L 25 -0.5 Z M 119.2099276512724 0.5 L 182.0721990525448 0.5 L 182.0721990525448 3.5 L 189.0721990525448 0 L 182.0721990525448 -3.5 L 182.0721990525448 -0.5 L 119.2099276512724 -0.5 Z"/><text text-anchor="middle" pointer-events="none" font-size="8px" fill="#000000" x="103.5360995262724" y="3" transform="rotate(180 103.5360995262724 0)" font-family="sans-serif">CALLS</text></g><g class="relationship" transform="translate(-178.70433474261338 379.96521162313024) rotate(263.25080918760847)"><path class="outline" fill="#A5ABB6" stroke="none" d="M 25 0.5 L 81.12887936365195 0.5 L 81.12887936365195 -0.5 L 25 -0.5 Z M 112.47653561365195 0.5 L 168.6054149773039 0.5 L 168.6054149773039 3.5 L 175.6054149773039 0 L 168.6054149773039 -3.5 L 168.6054149773039 -0.5 L 112.47653561365195 -0.5 Z"/><text text-anchor="middle" pointer-events="none" font-size="8px" fill="#000000" x="96.80270748865195" y="3" transform="rotate(180 96.80270748865195 0)" font-family="sans-serif">CALLS</text></g><g class="relationship" transform="translate(-178.70433474261338 379.96521162313024) rotate(241.20029808301473)"><path class="outline" fill="#A5ABB6" stroke="none" d="M 25 0.5 L 57.232400151203166 0.5 L 57.232400151203166 -0.5 L 25 -0.5 Z M 88.58005640120317 0.5 L 120.81245655240633 0.5 L 120.81245655240633 3.5 L 127.81245655240633 0 L 120.81245655240633 -3.5 L 120.81245655240633 -0.5 L 88.58005640120317 -0.5 Z"/><text text-anchor="middle" pointer-events="none" font-size="8px" fill="#000000" x="72.90622827620317" y="3" transform="rotate(180 72.90622827620317 0)" font-family="sans-serif">CALLS</text></g></g><g class="layer nodes"><g class="node" transform="translate(870.4819629213354,-161.07796489570921)"><circle class="outline" cx="0" cy="0" r="25" fill="#6DCE9E" stroke="#60B58B" stroke-width="2px"/><text text-anchor="middle" pointer-events="none" font-family="sans-serif" dy="1.5625" font-size="25" fill="#FFFFFF"/><text text-anchor="middle" pointer-events="none" y="5" font-size="10px" fill="#FFFFFF" font-family="sans-serif"> 18471</text></g><g class="node" transform="translate(707.2150036397647,43.29960274400217)"><circle class="outline" cx="0" cy="0" r="25" fill="#FB95AF" stroke="#E0849B" stroke-width="2px"/><text text-anchor="middle" pointer-events="none" font-family="sans-serif" dy="1.5625" font-size="25" fill="#FFFFFF"/><text text-anchor="middle" pointer-events="none" y="5" font-size="10px" fill="#FFFFFF" font-family="sans-serif"> 11C19F…</text></g><g class="node" transform="translate(450.67549538475544,440.8606968554181)"><circle class="outline" cx="0" cy="0" r="25" fill="#6DCE9E" stroke="#60B58B" stroke-width="2px"/><text text-anchor="middle" pointer-events="none" font-family="sans-serif" dy="1.5625" font-size="25" fill="#FFFFFF"/><text text-anchor="middle" pointer-events="none" y="5" font-size="10px" fill="#FFFFFF" font-family="sans-serif"> 16685</text></g><g class="node" transform="translate(575.8195595170328,311.56941110117214)"><circle class="outline" cx="0" cy="0" r="25" fill="#FB95AF" stroke="#E0849B" stroke-width="2px"/><text text-anchor="middle" pointer-events="none" font-family="sans-serif" dy="1.5625" font-size="25" fill="#FFFFFF"/><text text-anchor="middle" pointer-events="none" y="5" font-size="10px" fill="#FFFFFF" font-family="sans-serif"> FAD3FF…</text></g><g class="node" transform="translate(610.4880600350712,-30.03857828997372)"><circle class="outline" cx="0" cy="0" r="25" fill="#FB95AF" stroke="#E0849B" stroke-width="2px"/><text text-anchor="middle" pointer-events="none" font-family="sans-serif" dy="1.5625" font-size="25" fill="#FFFFFF"/><text text-anchor="middle" pointer-events="none" y="5" font-size="10px" fill="#FFFFFF" font-family="sans-serif"> D5FDE1…</text></g><g class="node" transform="translate(458.4514640687958,230.71536150987194)"><circle class="outline" cx="0" cy="0" r="25" fill="#FB95AF" stroke="#E0849B" stroke-width="2px"/><text text-anchor="middle" pointer-events="none" font-family="sans-serif" dy="1.5625" font-size="25" fill="#FFFFFF"/><text text-anchor="middle" pointer-events="none" y="5" font-size="10px" fill="#FFFFFF" font-family="sans-serif"> 605E58…</text></g><g class="node" transform="translate(639.6857779475083,28.700263383867455)"><circle class="outline" cx="0" cy="0" r="25" fill="#FB95AF" stroke="#E0849B" stroke-width="2px"/><text text-anchor="middle" pointer-events="none" font-family="sans-serif" dy="1.5625" font-size="25" fill="#FFFFFF"/><text text-anchor="middle" pointer-events="none" y="5" font-size="10px" fill="#FFFFFF" font-family="sans-serif"> 2BBE64…</text></g><g class="node" transform="translate(499.38043251729613,284.6931775226929)"><circle class="outline" cx="0" cy="0" r="25" fill="#FB95AF" stroke="#E0849B" stroke-width="2px"/><text text-anchor="middle" pointer-events="none" font-family="sans-serif" dy="1.5625" font-size="25" fill="#FFFFFF"/><text text-anchor="middle" pointer-events="none" y="5" font-size="10px" fill="#FFFFFF" font-family="sans-serif"> C777D1…</text></g><g class="node" transform="translate(747.9283663501272,-0.6781814368866479)"><circle class="outline" cx="0" cy="0" r="25" fill="#FB95AF" stroke="#E0849B" stroke-width="2px"/><text text-anchor="middle" pointer-events="none" font-family="sans-serif" dy="1.5625" font-size="25" fill="#FFFFFF"/><text text-anchor="middle" pointer-events="none" y="5" font-size="10px" fill="#FFFFFF" font-family="sans-serif"> ED01A9…</text></g><g class="node" transform="translate(621.5313448991999,272.7903397112668)"><circle class="outline" cx="0" cy="0" r="25" fill="#FB95AF" stroke="#E0849B" stroke-width="2px"/><text text-anchor="middle" pointer-events="none" font-family="sans-serif" dy="1.5625" font-size="25" fill="#FFFFFF"/><text text-anchor="middle" pointer-events="none" y="5" font-size="10px" fill="#FFFFFF" font-family="sans-serif"> C1A6CE…</text></g><g class="node" transform="translate(663.8454379895919,-108.94406064479577)"><circle class="outline" cx="0" cy="0" r="25" fill="#FB95AF" stroke="#E0849B" stroke-width="2px"/><text text-anchor="middle" pointer-events="none" font-family="sans-serif" dy="1.5625" font-size="25" fill="#FFFFFF"/><text text-anchor="middle" pointer-events="none" y="5" font-size="10px" fill="#FFFFFF" font-family="sans-serif"> B469CA…</text></g><g class="node" transform="translate(514.8016555305423,179.0224435500562)"><circle class="outline" cx="0" cy="0" r="25" fill="#FB95AF" stroke="#E0849B" stroke-width="2px"/><text text-anchor="middle" pointer-events="none" font-family="sans-serif" dy="1.5625" font-size="25" fill="#FFFFFF"/><text text-anchor="middle" pointer-events="none" y="5" font-size="10px" fill="#FFFFFF" font-family="sans-serif"> 1B1400…</text></g><g class="node" transform="translate(673.5710185090651,-33.10350207366323)"><circle class="outline" cx="0" cy="0" r="25" fill="#FB95AF" stroke="#E0849B" stroke-width="2px"/><text text-anchor="middle" pointer-events="none" font-family="sans-serif" dy="1.5625" font-size="25" fill="#FFFFFF"/><text text-anchor="middle" pointer-events="none" y="5" font-size="10px" fill="#FFFFFF" font-family="sans-serif"> 6E9DDF…</text></g><g class="node" transform="translate(536.7477546362363,237.78593582808767)"><circle class="outline" cx="0" cy="0" r="25" fill="#FB95AF" stroke="#E0849B" stroke-width="2px"/><text text-anchor="middle" pointer-events="none" font-family="sans-serif" dy="1.5625" font-size="25" fill="#FFFFFF"/><text text-anchor="middle" pointer-events="none" y="5" font-size="10px" fill="#FFFFFF" font-family="sans-serif"> 554846…</text></g><g class="node" transform="translate(720.9291206888299,-69.87644463617904)"><circle class="outline" cx="0" cy="0" r="25" fill="#FB95AF" stroke="#E0849B" stroke-width="2px"/><text text-anchor="middle" pointer-events="none" font-family="sans-serif" dy="1.5625" font-size="25" fill="#FFFFFF"/><text text-anchor="middle" pointer-events="none" y="5" font-size="10px" fill="#FFFFFF" font-family="sans-serif"> C4C85D…</text></g><g class="node" transform="translate(590.8588227517512,211.96646625593107)"><circle class="outline" cx="0" cy="0" r="25" fill="#FB95AF" stroke="#E0849B" stroke-width="2px"/><text text-anchor="middle" pointer-events="none" font-family="sans-serif" dy="1.5625" font-size="25" fill="#FFFFFF"/><text text-anchor="middle" pointer-events="none" y="5" font-size="10px" fill="#FFFFFF" font-family="sans-serif"> 6CA792…</text></g><g class="node" transform="translate(376.8146986473329,-254.6082560538062)"><circle class="outline" cx="0" cy="0" r="25" fill="#6DCE9E" stroke="#60B58B" stroke-width="2px"/><text text-anchor="middle" pointer-events="none" font-family="sans-serif" dy="1.5625" font-size="25" fill="#FFFFFF"/><text text-anchor="middle" pointer-events="none" y="5" font-size="10px" fill="#FFFFFF" font-family="sans-serif"> 18036</text></g><g class="node" transform="translate(506.6057195209772,-256.1592050583344)"><circle class="outline" cx="0" cy="0" r="25" fill="#FB95AF" stroke="#E0849B" stroke-width="2px"/><text text-anchor="middle" pointer-events="none" font-family="sans-serif" dy="1.5625" font-size="25" fill="#FFFFFF"/><text text-anchor="middle" pointer-events="none" y="5" font-size="10px" fill="#FFFFFF" font-family="sans-serif"> CDB1D…</text></g><g class="node" transform="translate(552.1047355027978,-217.14584759792137)"><circle class="outline" cx="0" cy="0" r="25" fill="#FB95AF" stroke="#E0849B" stroke-width="2px"/><text text-anchor="middle" pointer-events="none" font-family="sans-serif" dy="1.5625" font-size="25" fill="#FFFFFF"/><text text-anchor="middle" pointer-events="none" y="5" font-size="10px" fill="#FFFFFF" font-family="sans-serif"> F9B994…</text></g><g class="node" transform="translate(488.17376400102665,-161.8858767784618)"><circle class="outline" cx="0" cy="0" r="25" fill="#FB95AF" stroke="#E0849B" stroke-width="2px"/><text text-anchor="middle" pointer-events="none" font-family="sans-serif" dy="1.5625" font-size="25" fill="#FFFFFF"/><text text-anchor="middle" pointer-events="none" y="5" font-size="10px" fill="#FFFFFF" font-family="sans-serif"> 0E72F8…</text></g><g class="node" transform="translate(552.5781245183156,-148.89222731514465)"><circle class="outline" cx="0" cy="0" r="25" fill="#FB95AF" stroke="#E0849B" stroke-width="2px"/><text text-anchor="middle" pointer-events="none" font-family="sans-serif" dy="1.5625" font-size="25" fill="#FFFFFF"/><text text-anchor="middle" pointer-events="none" y="5" font-size="10px" fill="#FFFFFF" font-family="sans-serif"> 8F63F3…</text></g><g class="node" transform="translate(437.9917648896043,-75.3577695640549)"><circle class="outline" cx="0" cy="0" r="25" fill="#FB95AF" stroke="#E0849B" stroke-width="2px"/><text text-anchor="middle" pointer-events="none" font-family="sans-serif" dy="1.5625" font-size="25" fill="#FFFFFF"/><text text-anchor="middle" pointer-events="none" y="5" font-size="10px" fill="#FFFFFF" font-family="sans-serif"> C08AB3…</text></g><g class="node" transform="translate(503.9038823133224,-89.20093074982537)"><circle class="outline" cx="0" cy="0" r="25" fill="#FB95AF" stroke="#E0849B" stroke-width="2px"/><text text-anchor="middle" pointer-events="none" font-family="sans-serif" dy="1.5625" font-size="25" fill="#FFFFFF"/><text text-anchor="middle" pointer-events="none" y="5" font-size="10px" fill="#FFFFFF" font-family="sans-serif"> 1337F8…</text></g><g class="node" transform="translate(416.7699338509189,-131.3494265918259)"><circle class="outline" cx="0" cy="0" r="25" fill="#FB95AF" stroke="#E0849B" stroke-width="2px"/><text text-anchor="middle" pointer-events="none" font-family="sans-serif" dy="1.5625" font-size="25" fill="#FFFFFF"/><text text-anchor="middle" pointer-events="none" y="5" font-size="10px" fill="#FFFFFF" font-family="sans-serif"> 03444D…</text></g><g class="node" transform="translate(-571.9246595674628,-179.57065518391994)"><circle class="outline" cx="0" cy="0" r="25" fill="#6DCE9E" stroke="#60B58B" stroke-width="2px"/><text text-anchor="middle" pointer-events="none" font-family="sans-serif" dy="1.5625" font-size="25" fill="#FFFFFF"/><text text-anchor="middle" pointer-events="none" y="5" font-size="10px" fill="#FFFFFF" font-family="sans-serif"> 18643</text></g><g class="node" transform="translate(-392.34333816939085,3.0125572630487505)"><circle class="outline" cx="0" cy="0" r="25" fill="#FB95AF" stroke="#E0849B" stroke-width="2px"/><text text-anchor="middle" pointer-events="none" font-family="sans-serif" dy="1.5625" font-size="25" fill="#FFFFFF"/><text text-anchor="middle" pointer-events="none" y="5" font-size="10px" fill="#FFFFFF" font-family="sans-serif"> 95729A…</text></g><g class="node" transform="translate(-446.7191172911616,422.7673945888881)"><circle class="outline" cx="0" cy="0" r="25" fill="#6DCE9E" stroke="#60B58B" stroke-width="2px"/><text text-anchor="middle" pointer-events="none" font-family="sans-serif" dy="1.5625" font-size="25" fill="#FFFFFF"/><text text-anchor="middle" pointer-events="none" y="5" font-size="10px" fill="#FFFFFF" font-family="sans-serif"> 20953</text></g><g class="node" transform="translate(-406.33519451929817,210.93115748723005)"><circle class="outline" cx="0" cy="0" r="25" fill="#FB95AF" stroke="#E0849B" stroke-width="2px"/><text text-anchor="middle" pointer-events="none" font-family="sans-serif" dy="1.5625" font-size="25" fill="#FFFFFF"/><text text-anchor="middle" pointer-events="none" y="5" font-size="10px" fill="#FFFFFF" font-family="sans-serif"> F7364F…</text></g><g class="node" transform="translate(-355.9998276579622,52.73850913060157)"><circle class="outline" cx="0" cy="0" r="25" fill="#FB95AF" stroke="#E0849B" stroke-width="2px"/><text text-anchor="middle" pointer-events="none" font-family="sans-serif" dy="1.5625" font-size="25" fill="#FFFFFF"/><text text-anchor="middle" pointer-events="none" y="5" font-size="10px" fill="#FFFFFF" font-family="sans-serif"> F29E24…</text></g><g class="node" transform="translate(-366.28683474312527,262.379325708884)"><circle class="outline" cx="0" cy="0" r="25" fill="#FB95AF" stroke="#E0849B" stroke-width="2px"/><text text-anchor="middle" pointer-events="none" font-family="sans-serif" dy="1.5625" font-size="25" fill="#FFFFFF"/><text text-anchor="middle" pointer-events="none" y="5" font-size="10px" fill="#FFFFFF" font-family="sans-serif"> 528D71…</text></g><g class="node" transform="translate(122.30142444764796,191.1122529122365)"><circle class="outline" cx="0" cy="0" r="25" fill="#6DCE9E" stroke="#60B58B" stroke-width="2px"/><text text-anchor="middle" pointer-events="none" font-family="sans-serif" dy="1.5625" font-size="25" fill="#FFFFFF"/><text text-anchor="middle" pointer-events="none" y="5" font-size="10px" fill="#FFFFFF" font-family="sans-serif"> 22668</text></g><g class="node" transform="translate(-105.41969333713052,159.99143184086975)"><circle class="outline" cx="0" cy="0" r="25" fill="#FB95AF" stroke="#E0849B" stroke-width="2px"/><text text-anchor="middle" pointer-events="none" font-family="sans-serif" dy="1.5625" font-size="25" fill="#FFFFFF"/><text text-anchor="middle" pointer-events="none" y="5" font-size="10px" fill="#FFFFFF" font-family="sans-serif"> 589668…</text></g><g class="node" transform="translate(-137.22071870441818,99.13319859649492)"><circle class="outline" cx="0" cy="0" r="25" fill="#FB95AF" stroke="#E0849B" stroke-width="2px"/><text text-anchor="middle" pointer-events="none" font-family="sans-serif" dy="1.5625" font-size="25" fill="#FFFFFF"/><text text-anchor="middle" pointer-events="none" y="5" font-size="10px" fill="#FFFFFF" font-family="sans-serif"> EF0C72…</text></g><g class="node" transform="translate(-295.6305618856646,-42.70118819379005)"><circle class="outline" cx="0" cy="0" r="25" fill="#FB95AF" stroke="#E0849B" stroke-width="2px"/><text text-anchor="middle" pointer-events="none" font-family="sans-serif" dy="1.5625" font-size="25" fill="#FFFFFF"/><text text-anchor="middle" pointer-events="none" y="5" font-size="10px" fill="#FFFFFF" font-family="sans-serif"> E2FA70…</text></g><g class="node" transform="translate(-57.86372713152473,74.27987612700068)"><circle class="outline" cx="0" cy="0" r="25" fill="#FB95AF" stroke="#E0849B" stroke-width="2px"/><text text-anchor="middle" pointer-events="none" font-family="sans-serif" dy="1.5625" font-size="25" fill="#FFFFFF"/><text text-anchor="middle" pointer-events="none" y="5" font-size="10px" fill="#FFFFFF" font-family="sans-serif"> 16F327…</text></g><g class="node" transform="translate(-407.78312668916027,-222.78013881302854)"><circle class="outline" cx="0" cy="0" r="25" fill="#FB95AF" stroke="#E0849B" stroke-width="2px"/><text text-anchor="middle" pointer-events="none" font-family="sans-serif" dy="1.5625" font-size="25" fill="#FFFFFF"/><text text-anchor="middle" pointer-events="none" y="5" font-size="10px" fill="#FFFFFF" font-family="sans-serif"> 7BDEAF…</text></g><g class="node" transform="translate(-0.5436789830448845,-261.7920907783677)"><circle class="outline" cx="0" cy="0" r="25" fill="#6DCE9E" stroke="#60B58B" stroke-width="2px"/><text text-anchor="middle" pointer-events="none" font-family="sans-serif" dy="1.5625" font-size="25" fill="#FFFFFF"/><text text-anchor="middle" pointer-events="none" y="5" font-size="10px" fill="#FFFFFF" font-family="sans-serif"> 24220</text></g><g class="node" transform="translate(-177.85965789889568,-255.28218488572597)"><circle class="outline" cx="0" cy="0" r="25" fill="#FB95AF" stroke="#E0849B" stroke-width="2px"/><text text-anchor="middle" pointer-events="none" font-family="sans-serif" dy="1.5625" font-size="25" fill="#FFFFFF"/><text text-anchor="middle" pointer-events="none" y="5" font-size="10px" fill="#FFFFFF" font-family="sans-serif"> 87044C…</text></g><g class="node" transform="translate(-375.38510664334797,-171.63991974606722)"><circle class="outline" cx="0" cy="0" r="25" fill="#FB95AF" stroke="#E0849B" stroke-width="2px"/><text text-anchor="middle" pointer-events="none" font-family="sans-serif" dy="1.5625" font-size="25" fill="#FFFFFF"/><text text-anchor="middle" pointer-events="none" y="5" font-size="10px" fill="#FFFFFF" font-family="sans-serif"> 6931E5…</text></g><g class="node" transform="translate(-138.90247886987302,-206.76030488179848)"><circle class="outline" cx="0" cy="0" r="25" fill="#FB95AF" stroke="#E0849B" stroke-width="2px"/><text text-anchor="middle" pointer-events="none" font-family="sans-serif" dy="1.5625" font-size="25" fill="#FFFFFF"/><text text-anchor="middle" pointer-events="none" y="5" font-size="10px" fill="#FFFFFF" font-family="sans-serif"> EF4977…</text></g><g class="node" transform="translate(-333.96860469210424,-278.0757900173093)"><circle class="outline" cx="0" cy="0" r="25" fill="#FB95AF" stroke="#E0849B" stroke-width="2px"/><text text-anchor="middle" pointer-events="none" font-family="sans-serif" dy="1.5625" font-size="25" fill="#FFFFFF"/><text text-anchor="middle" pointer-events="none" y="5" font-size="10px" fill="#FFFFFF" font-family="sans-serif"> 08D222…</text></g><g class="node" transform="translate(-125.10556787974647,-293.0409202880307)"><circle class="outline" cx="0" cy="0" r="25" fill="#FB95AF" stroke="#E0849B" stroke-width="2px"/><text text-anchor="middle" pointer-events="none" font-family="sans-serif" dy="1.5625" font-size="25" fill="#FFFFFF"/><text text-anchor="middle" pointer-events="none" y="5" font-size="10px" fill="#FFFFFF" font-family="sans-serif"> 7D9095…</text></g><g class="node" transform="translate(-125.06665902064893,-352.84712654451124)"><circle class="outline" cx="0" cy="0" r="25" fill="#FB95AF" stroke="#E0849B" stroke-width="2px"/><text text-anchor="middle" pointer-events="none" font-family="sans-serif" dy="1.5625" font-size="25" fill="#FFFFFF"/><text text-anchor="middle" pointer-events="none" y="5" font-size="10px" fill="#FFFFFF" font-family="sans-serif"> 2759346…</text></g><g class="node" transform="translate(-418.35258029699264,-287.5518177987871)"><circle class="outline" cx="0" cy="0" r="25" fill="#FB95AF" stroke="#E0849B" stroke-width="2px"/><text text-anchor="middle" pointer-events="none" font-family="sans-serif" dy="1.5625" font-size="25" fill="#FFFFFF"/><text text-anchor="middle" pointer-events="none" y="5" font-size="10px" fill="#FFFFFF" font-family="sans-serif"> A6583C…</text></g><g class="node" transform="translate(-184.7429132806304,-326.40611095032466)"><circle class="outline" cx="0" cy="0" r="25" fill="#FB95AF" stroke="#E0849B" stroke-width="2px"/><text text-anchor="middle" pointer-events="none" font-family="sans-serif" dy="1.5625" font-size="25" fill="#FFFFFF"/><text text-anchor="middle" pointer-events="none" y="5" font-size="10px" fill="#FFFFFF" font-family="sans-serif"> B2DA15…</text></g><g class="node" transform="translate(-90.3071911134129,-128.9735699328074)"><circle class="outline" cx="0" cy="0" r="25" fill="#FB95AF" stroke="#E0849B" stroke-width="2px"/><text text-anchor="middle" pointer-events="none" font-family="sans-serif" dy="1.5625" font-size="25" fill="#FFFFFF"/><text text-anchor="middle" pointer-events="none" y="5" font-size="10px" fill="#FFFFFF" font-family="sans-serif"> DEB511…</text></g><g class="node" transform="translate(-187.58805520801934,-126.07259834388961)"><circle class="outline" cx="0" cy="0" r="25" fill="#FB95AF" stroke="#E0849B" stroke-width="2px"/><text text-anchor="middle" pointer-events="none" font-family="sans-serif" dy="1.5625" font-size="25" fill="#FFFFFF"/><text text-anchor="middle" pointer-events="none" y="5" font-size="10px" fill="#FFFFFF" font-family="sans-serif"> CDAE38…</text></g><g class="node" transform="translate(-145.6303277111991,-77.52878460439072)"><circle class="outline" cx="0" cy="0" r="25" fill="#FB95AF" stroke="#E0849B" stroke-width="2px"/><text text-anchor="middle" pointer-events="none" font-family="sans-serif" dy="1.5625" font-size="25" fill="#FFFFFF"/><text text-anchor="middle" pointer-events="none" y="5" font-size="10px" fill="#FFFFFF" font-family="sans-serif"> AF58E9…</text></g><g class="node" transform="translate(-646.4450059831212,263.3845675144662)"><circle class="outline" cx="0" cy="0" r="25" fill="#6DCE9E" stroke="#60B58B" stroke-width="2px"/><text text-anchor="middle" pointer-events="none" font-family="sans-serif" dy="1.5625" font-size="25" fill="#FFFFFF"/><text text-anchor="middle" pointer-events="none" y="5" font-size="10px" fill="#FFFFFF" font-family="sans-serif"> 26772</text></g><g class="node" transform="translate(-516.8676851497963,129.7986211525381)"><circle class="outline" cx="0" cy="0" r="25" fill="#FB95AF" stroke="#E0849B" stroke-width="2px"/><text text-anchor="middle" pointer-events="none" font-family="sans-serif" dy="1.5625" font-size="25" fill="#FFFFFF"/><text text-anchor="middle" pointer-events="none" y="5" font-size="10px" fill="#FFFFFF" font-family="sans-serif"> 9C41B9…</text></g><g class="node" transform="translate(-483.93232227594234,188.70276255142142)"><circle class="outline" cx="0" cy="0" r="25" fill="#FB95AF" stroke="#E0849B" stroke-width="2px"/><text text-anchor="middle" pointer-events="none" font-family="sans-serif" dy="1.5625" font-size="25" fill="#FFFFFF"/><text text-anchor="middle" pointer-events="none" y="5" font-size="10px" fill="#FFFFFF" font-family="sans-serif"> AD8863…</text></g><g class="node" transform="translate(-603.9383833867653,-38.98966623490646)"><circle class="outline" cx="0" cy="0" r="25" fill="#FB95AF" stroke="#E0849B" stroke-width="2px"/><text text-anchor="middle" pointer-events="none" font-family="sans-serif" dy="1.5625" font-size="25" fill="#FFFFFF"/><text text-anchor="middle" pointer-events="none" y="5" font-size="10px" fill="#FFFFFF" font-family="sans-serif"> E0DE31…</text></g><g class="node" transform="translate(-634.9750069154296,123.2575650365254)"><circle class="outline" cx="0" cy="0" r="25" fill="#FB95AF" stroke="#E0849B" stroke-width="2px"/><text text-anchor="middle" pointer-events="none" font-family="sans-serif" dy="1.5625" font-size="25" fill="#FFFFFF"/><text text-anchor="middle" pointer-events="none" y="5" font-size="10px" fill="#FFFFFF" font-family="sans-serif"> FF0CA5…</text></g><g class="node" transform="translate(-178.70433474261338,379.96521162313024)"><circle class="outline" cx="0" cy="0" r="25" fill="#6DCE9E" stroke="#60B58B" stroke-width="2px"/><text text-anchor="middle" pointer-events="none" font-family="sans-serif" dy="1.5625" font-size="25" fill="#FFFFFF"/><text text-anchor="middle" pointer-events="none" y="5" font-size="10px" fill="#FFFFFF" font-family="sans-serif"> 27659</text></g><g class="node" transform="translate(-284.4634451603502,193.84181983466826)"><circle class="outline" cx="0" cy="0" r="25" fill="#FB95AF" stroke="#E0849B" stroke-width="2px"/><text text-anchor="middle" pointer-events="none" font-family="sans-serif" dy="1.5625" font-size="25" fill="#FFFFFF"/><text text-anchor="middle" pointer-events="none" y="5" font-size="10px" fill="#FFFFFF" font-family="sans-serif"> F23B85…</text></g><g class="node" transform="translate(-202.28015962285502,180.74996873385612)"><circle class="outline" cx="0" cy="0" r="25" fill="#FB95AF" stroke="#E0849B" stroke-width="2px"/><text text-anchor="middle" pointer-events="none" font-family="sans-serif" dy="1.5625" font-size="25" fill="#FFFFFF"/><text text-anchor="middle" pointer-events="none" y="5" font-size="10px" fill="#FFFFFF" font-family="sans-serif"> 309979…</text></g><g class="node" transform="translate(-252.3216004604493,246.05425215449446)"><circle class="outline" cx="0" cy="0" r="25" fill="#FB95AF" stroke="#E0849B" stroke-width="2px"/><text text-anchor="middle" pointer-events="none" font-family="sans-serif" dy="1.5625" font-size="25" fill="#FFFFFF"/><text text-anchor="middle" pointer-events="none" y="5" font-size="10px" fill="#FFFFFF" font-family="sans-serif"> A097B5…</text></g></g></svg>